<svg xmlns="http://www.w3.org/2000/svg" viewBox="0 0 169 301.63"><defs><style>.cls-1{fill:#ab94c4;opacity:0.6;}.cls-2{fill:#684e89;opacity:0.54;}.cls-3{fill:#f91e77;opacity:0.3;}.cls-4{fill:#ffb0d4;}.cls-5{fill:#5bd6a7;}.cls-6{fill:#52aa75;}.cls-7{fill:#ff94bd;}.cls-8{fill:#fff;}</style></defs><title>button-green</title><g id="button_purp" data-name="button purp"><path class="cls-1" d="M18,314.62c19.27,1.14,148.29,1.6,157.11,0s8-6.41,7.21-14.43,4.94-259.7.47-273.33S180.71,14,168.69,14,30.82,14,25.21,14,18,23.66,18,37.28c0,12.25-3.33,218.83-2.29,269.55C15.81,311.77,15.72,314.49,18,314.62Z" transform="translate(-15.5 -14.02)"/><path class="cls-2" d="M20.4,99s4.81,11.22,6.81,13.23,139.47.4,143.48,0,10.82-18.44,9.62-18.84-159.91,0-159.91,0Z" transform="translate(-15.5 -14.02)"/><circle class="cls-3" cx="83.95" cy="45.4" r="24.75"/><path class="cls-4" d="M101.56,71.55c.4-3.81-1-10.62,1-11s4.61.2,5,2.2,2.2,5.21,2,6.61-.4,1.81-2.6,2.21A22.19,22.19,0,0,1,101.56,71.55Z" transform="translate(-15.5 -14.02)"/></g><g id="buttons_mag" data-name="buttons mag"><path class="cls-5" d="M18,314.62c19.27,1.14,148.29,1.6,157.11,0s8-6.41,7.21-14.43,4.94-259.7.47-273.33S180.71,14,168.69,14,30.82,14,25.21,14,18,23.66,18,37.28c0,12.25-3.33,218.83-2.29,269.55C15.81,311.77,15.72,314.49,18,314.62Z" transform="translate(-15.5 -14.02)"/><path class="cls-6" d="M20.4,99s4.81,11.22,6.81,13.23,139.47.4,143.48,0,10.82-18.44,9.62-18.84-159.91,0-159.91,0Z" transform="translate(-15.5 -14.02)"/><circle class="cls-7" cx="83.95" cy="45.4" r="24.75"/><path class="cls-8" d="M101.56,71.55c.4-3.81-1-10.62,1-11s4.61.2,5,2.2,2.2,5.21,2,6.61-.4,1.81-2.6,2.21A22.19,22.19,0,0,1,101.56,71.55Z" transform="translate(-15.5 -14.02)"/></g></svg>